<svg width="50" height="50" viewBox="0 0 50 50" fill="none" xmlns="http://www.w3.org/2000/svg">
<circle cx="25" cy="25" r="25" fill="#2F80ED"/>
<path d="M20.7216 10.6924H14.3883C13.5484 10.6924 12.743 11.026 12.1491 11.6198C11.5552 12.2137 11.2216 13.0192 11.2216 13.859V20.1924M20.7216 10.6924H36.555C37.3948 10.6924 38.2003 11.026 38.7941 11.6198C39.388 12.2137 39.7216 13.0192 39.7216 13.859V20.1924M20.7216 10.6924V39.1924M11.2216 20.1924V36.0257C11.2216 36.8655 11.5552 37.671 12.1491 38.2649C12.743 38.8587 13.5484 39.1924 14.3883 39.1924H20.7216M11.2216 20.1924H39.7216M39.7216 20.1924V36.0257C39.7216 36.8655 39.388 37.671 38.7941 38.2649C38.2003 38.8587 37.3948 39.1924 36.555 39.1924H20.7216" stroke="white" stroke-width="2" stroke-linecap="round" stroke-linejoin="round"/>
</svg>
